<svg width="320" height="320" viewBox="0 0 320 320" fill="none" xmlns="http://www.w3.org/2000/svg">
<rect x="5" y="5" width="310" height="310" rx="155" fill="white"/>
<circle cx="90" cy="115" r="20" fill="#353840"/>
<circle cx="95" cy="110" r="5" fill="white"/>
<circle cx="230" cy="115" r="20" fill="#353840"/>
<circle cx="235" cy="110" r="5" fill="white"/>
<g clip-path="url(#clip0_3_2)">
<path d="M85 185H235V201.071C235 215.865 223.008 227.857 208.214 227.857H111.786C96.9924 227.857 85 215.865 85 201.071V185Z" fill="#353840"/>
<path d="M106.429 217.143C106.429 211.226 111.226 206.429 117.143 206.429H202.857C208.774 206.429 213.571 211.226 213.571 217.143V217.908C213.571 232.702 201.579 244.694 186.786 244.694H133.214C118.421 244.694 106.429 232.702 106.429 217.908V217.143Z" fill="#EC5BA1"/>
<path d="M93.0357 190.357H226.964C226.964 194.795 223.367 198.393 218.929 198.393H101.071C96.6334 198.393 93.0357 194.795 93.0357 190.357Z" fill="white"/>
</g>
<rect x="5" y="5" width="310" height="310" rx="155" stroke="#353840" stroke-width="10"/>
<defs>
<clipPath id="clip0_3_2">
<path d="M85 185H235V201.071C235 215.865 223.008 227.857 208.214 227.857H111.786C96.9924 227.857 85 215.865 85 201.071V185Z" fill="white"/>
</clipPath>
</defs>
</svg>
