<?xml version="1.0" standalone="no"?>
<!DOCTYPE svg PUBLIC "-//W3C//DTD SVG 20010904//EN"
 "http://www.w3.org/TR/2001/REC-SVG-20010904/DTD/svg10.dtd">
<svg version="1.0" xmlns="http://www.w3.org/2000/svg"
 width="520.000000pt" height="520.000000pt" viewBox="0 0 520.000000 520.000000"
 preserveAspectRatio="xMidYMid meet">
<metadata>
Created by potrace 1.14, written by Peter Selinger 2001-2017
</metadata>
<g transform="translate(0.000000,520.000000) scale(0.100000,-0.100000)"
fill="#000000" stroke="none">
<path d="M351 5175 c-41 -13 -87 -33 -103 -45 -15 -11 -31 -20 -35 -20 -20 0
-131 -130 -157 -183 -59 -122 -56 27 -55 -2327 0 -1850 2 -2173 15 -2220 47
-182 200 -330 379 -369 60 -12 4370 -10 4424 3 169 40 320 192 367 369 21 79
19 4356 -2 4437 -48 185 -207 336 -389 369 -41 8 -706 11 -2215 11 l-2155 -1
-74 -24z"/>
</g>
</svg>
