<?xml version="1.0" standalone="no"?>
<!DOCTYPE svg PUBLIC "-//W3C//DTD SVG 20010904//EN"
 "http://www.w3.org/TR/2001/REC-SVG-20010904/DTD/svg10.dtd">
<svg version="1.0" xmlns="http://www.w3.org/2000/svg"
 width="512.000000pt" height="512.000000pt" viewBox="0 0 512.000000 512.000000"
 preserveAspectRatio="xMidYMid meet">
<metadata>
Created by potrace 1.14, written by Peter Selinger 2001-2017
</metadata>
<g transform="translate(0.000000,512.000000) scale(0.100000,-0.100000)"
fill="#000000" stroke="none">
<path d="M2379 5116 c-2 -2 -35 -6 -74 -10 -125 -12 -156 -16 -173 -24 -9 -4
-29 -7 -44 -6 -16 0 -28 -2 -28 -5 0 -4 -8 -7 -17 -7 -17 -1 -48 -7 -98 -18
-73 -17 -211 -62 -217 -70 -4 -6 -8 -8 -8 -3 0 4 -15 1 -34 -7 -19 -8 -37 -12
-40 -8 -3 3 -6 0 -6 -6 0 -7 -8 -12 -18 -12 -10 0 -22 -3 -26 -7 -4 -5 -11 -8
-14 -8 -18 -2 -52 -17 -52 -24 0 -4 -6 -8 -12 -8 -14 0 -173 -77 -193 -93 -6
-5 -15 -7 -18 -3 -4 3 -7 1 -7 -5 0 -7 -7 -12 -15 -12 -8 0 -15 -3 -15 -8 0
-4 -15 -14 -32 -21 -18 -8 -49 -26 -69 -40 -20 -14 -47 -33 -59 -41 -22 -15
-198 -149 -226 -173 -47 -40 -224 -220 -224 -228 0 -6 -4 -7 -10 -4 -5 3 -10
2 -10 -3 0 -8 -7 -18 -63 -82 -31 -36 -178 -242 -185 -260 -3 -8 -12 -21 -19
-30 -7 -8 -13 -19 -14 -25 0 -5 -6 -17 -14 -25 -11 -13 -117 -215 -121 -230 0
-3 -6 -17 -12 -32 -7 -16 -17 -40 -24 -55 -6 -16 -11 -31 -10 -35 1 -5 -2 -8
-8 -8 -6 0 -9 -3 -9 -7 1 -5 0 -10 -1 -13 -1 -3 -3 -12 -5 -20 -8 -38 -11 -45
-19 -51 -4 -4 -9 -20 -10 -36 -2 -16 -7 -36 -12 -44 -4 -8 -9 -19 -10 -24 -1
-6 -11 -43 -22 -82 -11 -39 -17 -74 -14 -77 3 -3 1 -6 -4 -6 -5 0 -9 -10 -10
-22 0 -13 -4 -36 -7 -53 -18 -84 -25 -130 -21 -137 3 -5 2 -13 -2 -19 -12 -20
-18 -129 -18 -339 0 -206 3 -258 30 -410 3 -19 6 -47 7 -62 1 -16 6 -28 10
-28 4 0 7 -6 6 -12 -2 -7 0 -26 4 -43 4 -16 9 -39 12 -50 14 -60 42 -155 48
-161 4 -4 7 -18 7 -31 0 -13 4 -23 8 -23 4 0 8 -8 9 -17 4 -46 172 -410 216
-468 4 -5 38 -57 76 -115 38 -58 78 -114 88 -125 10 -12 34 -41 53 -65 63 -82
309 -334 317 -326 2 2 16 -8 32 -23 60 -56 90 -79 191 -146 58 -39 108 -74
111 -78 3 -5 10 -8 15 -8 5 1 16 -5 26 -13 9 -8 19 -11 23 -8 3 4 9 2 13 -4
10 -16 159 -94 166 -87 3 4 6 0 6 -7 0 -7 3 -10 7 -7 3 4 11 3 17 -2 9 -8 49
-25 141 -61 11 -4 22 -7 25 -7 3 0 16 -5 28 -12 13 -7 35 -15 50 -17 14 -3 30
-8 36 -12 6 -3 16 -7 21 -9 6 -1 42 -11 80 -22 39 -11 81 -22 95 -25 104 -21
126 -24 134 -19 5 4 6 1 2 -5 -5 -8 3 -11 23 -8 17 2 31 1 31 -3 0 -3 12 -7
28 -8 15 0 63 -5 107 -10 155 -16 485 -9 615 13 19 3 48 7 65 9 16 2 30 4 30
5 0 2 19 6 65 14 19 3 50 10 69 15 19 6 38 8 42 5 5 -3 9 -1 9 3 0 5 9 9 19
10 30 2 286 91 360 125 116 52 176 83 183 93 4 6 8 6 8 1 0 -5 9 -1 20 9 11
10 20 14 20 9 0 -5 4 -4 8 1 10 14 127 85 140 85 5 0 12 7 16 15 3 8 10 15 16
15 5 0 18 6 27 14 10 8 55 42 99 76 45 33 98 76 118 95 20 18 36 32 36 30 0
-2 35 31 78 73 44 42 77 80 76 83 -2 3 7 11 19 18 12 6 33 28 46 47 14 19 35
45 48 57 12 12 23 28 23 35 0 7 5 10 10 7 6 -3 10 -2 10 2 0 7 82 127 110 160
5 7 10 17 10 23 0 5 4 10 9 10 5 0 14 14 21 31 7 17 18 36 24 42 10 11 31 50
106 194 16 31 27 60 24 65 -3 4 -1 8 4 8 5 0 20 27 32 60 12 33 27 60 32 60 5
0 7 4 4 9 -3 5 5 39 19 75 14 36 22 66 19 66 -4 0 -1 6 5 14 7 8 14 24 16 36
2 13 11 46 19 74 8 28 17 69 22 91 9 46 11 54 14 58 1 1 4 16 5 32 2 17 6 41
9 55 29 123 42 517 23 680 -4 36 -10 87 -13 115 -3 27 -10 53 -17 57 -9 6 -8
8 3 8 9 0 11 3 5 8 -5 4 -11 20 -12 37 -1 16 -6 36 -9 45 -4 8 -8 26 -9 40 -1
14 -3 25 -4 25 -2 0 -4 7 -6 15 -1 8 -8 35 -15 60 -7 25 -13 50 -15 55 -1 6
-5 17 -8 25 -3 8 -13 40 -23 70 -9 30 -23 69 -30 85 -7 17 -22 55 -34 85 -12
30 -26 61 -32 67 -6 7 -7 13 -3 13 5 0 0 9 -11 21 -10 12 -18 23 -16 25 3 5
-69 148 -78 154 -4 3 -11 16 -15 30 -4 14 -11 27 -14 30 -4 3 -17 22 -30 43
-13 21 -28 43 -34 50 -7 7 -19 24 -27 39 -8 14 -36 54 -62 87 -27 34 -48 63
-49 66 -1 11 -232 250 -297 307 -17 15 -72 60 -124 100 -51 40 -96 77 -100 83
-5 7 -8 7 -8 0 0 -5 -6 -3 -13 5 -7 8 -23 21 -37 28 -27 13 -62 34 -70 42 -8
8 -41 27 -100 58 -30 16 -72 39 -93 51 -21 11 -44 21 -52 21 -8 0 -15 5 -15
10 0 6 -6 10 -14 10 -8 0 -27 7 -43 15 -58 30 -171 71 -185 67 -5 -1 -8 3 -8
8 0 6 -10 10 -23 10 -13 0 -27 4 -32 9 -6 4 -32 14 -60 21 -27 6 -57 14 -65
16 -72 18 -90 21 -94 16 -4 -3 -6 0 -6 7 0 7 -10 12 -22 11 -13 -1 -25 -1 -28
0 -3 2 -19 3 -35 4 -17 1 -35 5 -41 8 -9 6 -46 12 -139 23 -48 6 -461 15 -466
11z"/>
</g>
</svg>
